<?xml version="1.0" encoding="UTF-8"?>
<!DOCTYPE svg PUBLIC "-//W3C//DTD SVG 1.1//EN" "http://www.w3.org/Graphics/SVG/1.1/DTD/svg11.dtd">
<!-- Creator: CorelDRAW X7 -->
<svg xmlns="http://www.w3.org/2000/svg" xml:space="preserve" width="2906px" height="2905px" version="1.1" style="shape-rendering:geometricPrecision; text-rendering:geometricPrecision; image-rendering:optimizeQuality; fill-rule:evenodd; clip-rule:evenodd"
viewBox="0 0 29060 29054"
 xmlns:xlink="http://www.w3.org/1999/xlink">
 <defs>
  <style type="text/css">
   <![CDATA[
    .fil0 {fill:#FEFEFE}
    .fil1 {fill:#1691CE}
    .fil2 {fill:#FF3D00;fill-rule:nonzero}
   ]]>
  </style>
 </defs>
 <g id="Layer_x0020_1">
  <metadata id="CorelCorpID_0Corel-Layer"/>
  <ellipse class="fil0" cx="14530" cy="14583" rx="14530" ry="14471"/>
  <g id="_954190464">
   <g id="_899706720">
    <path class="fil1" d="M15940 28988c1542,-151 3046,-564 4475,-1166 1353,-602 2594,-1391 3685,-2369l-677 -2933 -8536 2068 1053 4400 0 0zm5941 -5001c489,-113 1015,188 1128,714 113,527 -188,1015 -714,1128 -489,151 -1016,-188 -1128,-677 -113,-526 188,-1052 714,-1165l0 0z"/>
    <g>
     <path class="fil2" d="M14812 24212c-414,-225 -790,-451 -1203,-677 -790,-488 -1617,-940 -2407,-1203 -301,-113 -639,-75 -1015,-75 -714,75 -1391,113 -1504,-677 -75,-639 113,-1053 489,-1353 376,-264 902,-414 1504,-527 451,-75 902,-113 1391,-150 376,0 752,37 1091,75l-1655 -6994 0 0 0 0c-75,-338 -38,-677 151,-978l0 0c150,-263 451,-488 789,-564l0 0 0 0 75 -37 38 0 0 0c338,-75 677,0 940,188l0 0c188,113 338,263 451,489 38,-75 75,-151 113,-226l0 0c188,-263 451,-489 790,-564l112 0 0 0c339,-113 677,-38 940,150 301,151 489,452 602,790l0 0 0 0 564 2444c38,-75 38,-113 75,-150 151,-263 451,-489 790,-564l75 -38 0 0c376,-75 715,0 978,151l0 0c263,150 451,413 564,714 0,-38 37,-75 75,-113l0 0c150,-301 451,-489 790,-601l0 0 75 0c376,-76 714,-38 977,150 301,188 489,451 564,790l1467 6053c75,376 0,828 -151,1204 -37,75 -75,188 -112,263l-339 75c75,-113 151,-263 188,-451 151,-339 226,-715 151,-1015l-1467 -6054c-37,-263 -225,-489 -451,-639 -226,-113 -489,-188 -752,-113l-75 37 0 0c-301,38 -489,226 -639,452l0 0c-151,188 -188,451 -113,752l0 0 263 1203 -263 75 -263 -1241 0 0 0 0 0 0 -188 -677 0 0c-38,-263 -226,-488 -452,-601l0 0c-188,-151 -489,-188 -752,-151l0 0 -75 38c-301,75 -489,226 -639,451 -113,226 -188,489 -113,752l0 0 338 1542 -263 37 -338 -1504 0 0 -790 -3233 0 0c-37,-263 -225,-452 -451,-602 -188,-150 -489,-188 -752,-113l0 0 0 0 -75 0c-263,75 -489,226 -639,452l0 0c-113,225 -188,488 -113,752l0 0 1015 4324 -263 75 -1015 -4324 0 0 0 0 -113 -414 0 0c-38,-263 -226,-489 -451,-601l0 0c-226,-151 -489,-188 -753,-113l0 0 0 0 -75 0 -37 0c-264,75 -452,225 -602,451l0 0c-150,226 -188,489 -113,752l0 38 0 0 1692 7144 76 225 -226 -37c-376,-75 -790,-113 -1241,-75 -451,0 -902,37 -1354,112 -564,113 -1052,226 -1353,489 -339,226 -489,564 -414,1091 75,526 639,488 1241,451 376,0 752,-38 1090,75 828,263 1655,752 2482,1241 489,263 978,526 1467,790l-414 112 0 0zm1391 -12295l0 0 0 0 0 0zm1880 1917l0 0 0 0zm-75 -263l0 0 0 0zm1279 1015l0 0 0 0zm451 640l0 0 0 0z"/>
    </g>
    <path class="fil2" d="M19738 975c-3723,-1429 -7708,-1241 -11093,263 -3384,1504 -6241,4324 -7670,8047 -1429,3760 -1241,7708 263,11130 1504,3384 4324,6204 8047,7670 1955,752 3948,1053 5865,940l-188 -902c-1767,37 -3572,-226 -5339,-903 -3497,-1353 -6129,-3985 -7520,-7181 -1429,-3197 -1617,-6919 -263,-10416 1353,-3497 3985,-6129 7181,-7520 3159,-1429 6881,-1617 10416,-263 3497,1353 6129,3985 7520,7181 1429,3159 1617,6881 263,10416 -639,1654 -1579,3121 -2707,4362l226 1053c1429,-1392 2557,-3121 3346,-5114 1429,-3723 1241,-7708 -263,-11093 -1542,-3384 -4324,-6241 -8084,-7670l0 0z"/>
    <path class="fil1" d="M11353 8495c37,0 75,0 75,0l0 790c451,-38 827,-301 1015,-602 263,113 489,226 715,414 -188,300 -188,752 0,1165l676 -413c38,37 38,75 76,112l-677 414c225,376 639,602 977,564 0,38 38,75 38,75 -113,113 -226,188 -301,339 -263,-301 -564,-452 -940,-489 -225,-715 -865,-1241 -1654,-1241 -940,0 -1692,790 -1692,1730 0,977 752,1729 1692,1729l37 0c38,113 38,226 38,376l0 790c0,0 -38,0 -75,0 0,0 -38,0 -38,0l0 -790c-451,38 -865,264 -1015,602 -263,-113 -489,-263 -715,-414 188,-300 188,-789 0,-1165l-676 376c-38,-38 -38,-75 -76,-113l677 -376c-225,-376 -639,-602 -1015,-602 0,-112 0,-263 0,-413 0,-113 0,-264 0,-414 376,38 790,-188 1015,-564l-677 -376c38,-75 38,-113 76,-150l676 413c188,-413 188,-865 0,-1165 226,-188 452,-301 715,-414 150,301 564,564 1015,602l0 -790c0,0 38,0 38,0zm0 -301c902,0 1692,339 2256,903 451,488 789,1090 902,1767 -37,0 -75,37 -113,75 -112,-677 -413,-1278 -864,-1730 -564,-564 -1316,-902 -2181,-902 -828,0 -1580,338 -2144,902 -564,564 -902,1316 -902,2144l0 0c0,865 338,1617 902,2181 564,526 1316,864 2144,864l0 0c112,0 225,0 338,0l38 113c-113,38 -226,38 -339,38l-37 0c-865,0 -1655,-376 -2219,-940 -601,-564 -940,-1354 -940,-2219l0 -37c0,-865 339,-1655 940,-2219 564,-601 1354,-940 2219,-940l0 0z"/>
    <path class="fil2" d="M11353 9849c451,0 827,188 1090,451 151,150 263,338 339,526 -38,0 -76,0 -113,38 -75,-188 -188,-339 -339,-489 -225,-226 -564,-376 -977,-376 -376,0 -715,150 -978,376 -226,263 -376,602 -376,978 0,376 150,752 376,977 263,264 564,414 940,414l38 113c-414,0 -790,-151 -1053,-414 -263,-301 -451,-677 -451,-1090 0,-414 188,-790 451,-1053 263,-263 639,-451 1053,-451l0 0z"/>
    <path class="fil1" d="M15150 7743c38,0 38,0 76,0l0 790c413,-38 827,-264 1015,-564 225,75 489,225 677,376 -188,338 -188,789 0,1165l714 -376c0,38 38,75 38,113l-677 414c263,338 639,564 1015,564 0,150 38,263 38,413 0,113 0,263 -38,414 -376,-38 -752,225 -1015,564l677 414c0,37 -38,75 -38,112l-714 -413c-76,188 -113,376 -113,564l-113 -489c-38,-75 -75,-150 -75,-226 150,-263 263,-601 263,-940 0,-977 -790,-1729 -1730,-1729 -413,0 -789,150 -1090,413 -113,-150 -188,-225 -301,-338 -75,-75 -188,-188 -263,-226 0,-150 -75,-301 -113,-376 188,-188 451,-338 677,-413 188,300 602,526 1015,564l0 -790c38,0 38,0 75,0l0 0zm0 -301c865,0 1655,376 2256,940 565,564 941,1354 941,2256 0,865 -376,1655 -941,2256 -112,113 -263,226 -413,301l0 -113c113,-112 225,-188 301,-300 564,-564 902,-1317 902,-2144 0,-865 -338,-1617 -902,-2181 -527,-526 -1316,-864 -2144,-864 -827,0 -1541,300 -2105,827 -38,0 -75,-38 -113,-38 564,-564 1354,-940 2218,-940l0 0z"/>
    <path class="fil2" d="M15150 9134c414,0 790,151 1053,414 301,301 451,677 451,1090l0 0c0,263 -75,489 -188,715 0,-38 -37,-76 -75,-113 75,-188 151,-376 151,-602 0,-376 -151,-714 -414,-977 -263,-264 -602,-414 -978,-414 -338,0 -676,150 -902,338 -38,-37 -38,-75 -75,-112 263,-226 601,-339 977,-339l0 0z"/>
   </g>
  </g>
 </g>
</svg>
