<?xml version="1.0" encoding="UTF-8"?>
<!DOCTYPE svg PUBLIC "-//W3C//DTD SVG 1.1//EN" "http://www.w3.org/Graphics/SVG/1.1/DTD/svg11.dtd">
<!-- Creator: CorelDRAW X7 -->
<svg xmlns="http://www.w3.org/2000/svg" xml:space="preserve" width="2908px" height="2908px" version="1.1" style="shape-rendering:geometricPrecision; text-rendering:geometricPrecision; image-rendering:optimizeQuality; fill-rule:evenodd; clip-rule:evenodd"
viewBox="0 0 29080 29079"
 xmlns:xlink="http://www.w3.org/1999/xlink">
 <defs>
  <style type="text/css">
   <![CDATA[
    .fil0 {fill:#FEFEFE}
    .fil2 {fill:#1691CE}
    .fil3 {fill:#1691CE;fill-rule:nonzero}
    .fil1 {fill:#FF3D00;fill-rule:nonzero}
   ]]>
  </style>
 </defs>
 <g id="Layer_x0020_1">
  <metadata id="CorelCorpID_0Corel-Layer"/>
  <ellipse class="fil0" cx="14540" cy="14598" rx="14528" ry="14469"/>
  <g id="_927377328">
   <g id="_900017056">
    <path class="fil1" d="M19771 997c-3749,-1470 -7708,-1260 -11127,270 -3388,1499 -6208,4288 -7647,8037 -1470,3749 -1260,7708 270,11127 1499,3389 4288,6208 8037,7677 1170,450 2370,720 3569,870l-180 -960c-1019,-150 -2039,-389 -3059,-779 -3509,-1350 -6118,-3989 -7527,-7198 -1410,-3179 -1620,-6898 -270,-10407 1349,-3509 4018,-6118 7197,-7528 3179,-1409 6898,-1619 10407,-269 3509,1349 6118,4018 7528,7197 1409,3179 1619,6898 270,10407 -1260,3269 -3659,5788 -6568,7228l180 959c3209,-1559 5848,-4288 7257,-7857 1440,-3749 1230,-7708 -300,-11127 -1499,-3388 -4288,-6208 -8037,-7647l0 0z"/>
    <path class="fil2" d="M12963 26519l510 2519c2369,180 4738,-240 6868,-1170l-60 -269 -120 -660 -360 -1800 -6838 1380zm5698 -270c420,0 780,330 780,750 0,420 -360,749 -780,749 -420,0 -749,-329 -749,-749 0,-420 329,-750 749,-750z"/>
    <path class="fil1" d="M13083 26279c-360,-210 -720,-420 -1050,-660 -659,-390 -1259,-780 -1889,-1020 -240,-90 -540,-90 -810,-60 -570,0 -1109,0 -1169,-569 -30,-510 120,-840 419,-1050 300,-210 720,-330 1200,-390 360,-30 750,-60 1110,-60 300,0 600,30 870,90l-1110 -5608c-30,-270 30,-540 150,-750 150,-210 390,-360 660,-420l60 -30c269,-30 539,30 749,150 210,150 360,390 420,660l450 2219c30,-60 30,-120 60,-150 330,-480 1020,-599 1470,-300 150,120 300,270 359,450 30,-60 60,-120 90,-180 330,-480 1020,-599 1470,-300 150,90 270,240 360,420 30,-60 60,-120 90,-180 300,-479 990,-599 1469,-300 210,150 360,360 420,630l960 4859c60,270 -30,630 -150,929 -30,120 -90,240 -180,330l-240 60c90,-120 180,-270 270,-480 90,-269 150,-569 120,-809l-960 -4829c-60,-240 -180,-420 -360,-540 -359,-239 -929,-120 -1199,240 -120,180 -150,390 -120,630l210 960 -180 30c-90,-330 -150,-660 -210,-960l-60 -330c-30,-210 -180,-390 -330,-510 -390,-240 -960,-120 -1230,240 -90,180 -150,390 -120,600 90,330 150,660 210,990l-180 30 -209 -960 -60 -360c-30,-210 -180,-390 -330,-510 -390,-240 -960,-120 -1200,240 -120,180 -180,390 -150,600l210 990 -180 30c-60,-330 -120,-660 -210,-990l-540 -2759c-30,-240 -180,-420 -330,-510 -180,-120 -390,-180 -629,-120l-60 0c-240,30 -420,180 -510,360 -120,150 -180,390 -150,600l1139 5728 30 150 -120 -30c-299,-60 -659,-120 -989,-120 -360,0 -720,30 -1080,60 -450,60 -840,150 -1110,360 -239,180 -389,450 -359,870 60,420 509,420 989,420 300,-30 600,-30 870,60 630,239 1260,659 1919,1049 390,270 810,540 1230,750l-270 60 0 0z"/>
    <path class="fil2" d="M15392 3336l6118 1290c390,60 660,450 570,839l-2159 10227c-90,390 -480,660 -870,570l-6118 -1290c-390,-89 -630,-479 -570,-869l2160 -10227c90,-390 479,-630 869,-540l0 0zm6088 1500l-6148 -1290c-120,-30 -270,0 -360,60 -119,60 -209,180 -239,330l-2160 10227c-30,120 0,270 90,390 60,90 180,180 330,210l6118 1289c120,30 270,0 390,-60 90,-90 180,-210 210,-330l2159 -10227c30,-149 0,-269 -90,-389 -60,-120 -180,-180 -300,-210l0 0z"/>
    <path class="fil2" d="M7895 5765l6178 -959c30,0 60,0 120,0l-60 210c0,0 0,0 -30,0l-6178 959c-150,0 -270,90 -330,180 -90,120 -120,240 -90,390l1559 10347c30,120 120,240 210,330 120,60 240,120 390,90l840 -150 30 210 -840 150c-390,60 -780,-210 -840,-600l-1559 -10347c-60,-390 210,-750 600,-810l0 0zm5068 11037l2879 -450c150,0 270,-90 330,-180 60,-120 120,-210 120,-330l210 30c-30,360 -270,660 -630,690l-2879 450 -30 -210z"/>
    <path class="fil3" d="M17192 10684c120,240 360,390 660,450 509,120 989,-180 1109,-690 180,-900 -1229,-2369 -1259,-2909 -270,450 -2160,1229 -2340,2129 -120,510 210,990 690,1080 300,90 570,30 780,-120 -150,600 -570,840 -870,780 0,60 0,90 -30,120 300,60 570,120 840,179 300,60 600,120 870,180 0,-30 0,-60 30,-90 -300,-90 -570,-479 -480,-1109l0 0 0 0z"/>
    <path class="fil1" d="M12363 10084c150,-540 360,-840 900,-930l0 0 -780 3599c-690,-540 -1949,-1259 -2099,-2039 -90,-540 270,-1080 840,-1200 510,-90 809,120 1139,570l0 0z"/>
    <path class="fil1" d="M8465 8345l599 -120 90 389 300 -60 -60 -359 150 -30 -60 -300 -150 30 -240 -1350 -330 60 -329 1440 30 300 0 0zm239 -330l180 -810 150 750 -330 60 0 0z"/>
    <path class="fil3" d="M15152 5525l-30 180c-90,330 30,540 360,600 300,90 510,-60 570,-390l90 -450c90,-299 0,-479 -240,-539 -120,-30 -210,0 -300,90l120 -480 570 120 60 -270 -840 -210 -330 1170 300 59 30 -59c30,-150 90,-180 210,-150 90,0 150,90 120,239l-120 420c-30,150 -90,180 -180,180 -120,-30 -180,-90 -120,-240l30 -180 -300 -90z"/>
    <path class="fil3" d="M19351 13953l30 -180c90,-300 -30,-540 -330,-600 -330,-60 -540,90 -600,390l-90 450c-90,300 0,480 240,540 120,30 240,0 300,-90l-120 479 -570 -119 -60 299 840 180 330 -1169 -300 -60 -30 60c-30,150 -90,180 -210,180 -90,-30 -150,-90 -120,-240l120 -450c30,-150 90,-180 210,-150 90,0 150,90 120,210l-60 210 300 60 0 0z"/>
   </g>
  </g>
 </g>
</svg>
